REM DIRINDEX 1\2,1\3,1\4,1\5
REM DIRNAME "folder01","folder02","folder03","folder04","folder05"
TITLE ""
FILE "P1Q_t_0710-0719.mp3" MP3
  TRACK 01 AUDIO
    TITLE "3:cjc173_3070"
    INDEX 01 00:00:00
  TRACK 02 AUDIO
    TITLE "0:"
    INDEX 01 00:01:16
  TRACK 03 AUDIO
    TITLE "4:cjc173_3071"
    INDEX 01 00:01:37
  TRACK 04 AUDIO
    TITLE "0:"
    INDEX 01 00:04:45
  TRACK 05 AUDIO
    TITLE "5:cjc173_3072"
    INDEX 01 00:04:69
  TRACK 06 AUDIO
    TITLE "0:"
    INDEX 01 00:09:31
  TRACK 07 AUDIO
    TITLE "3:cjc173_3073"
    INDEX 01 00:10:03
  TRACK 08 AUDIO
    TITLE "0:"
    INDEX 01 00:11:20
  TRACK 09 AUDIO
    TITLE "4:cjc173_3074"
    INDEX 01 00:11:41
  TRACK 10 AUDIO
    TITLE "0:"
    INDEX 01 00:13:11
  TRACK 11 AUDIO
    TITLE "5:cjc173_3075"
    INDEX 01 00:13:33
  TRACK 12 AUDIO
    TITLE "0:"
    INDEX 01 00:17:15
  TRACK 13 AUDIO
    TITLE "3:cjc173_3076"
    INDEX 01 00:17:60
  TRACK 14 AUDIO
    TITLE "0:"
    INDEX 01 00:19:06
  TRACK 15 AUDIO
    TITLE "4:cjc173_3077"
    INDEX 01 00:19:27
  TRACK 16 AUDIO
    TITLE "0:"
    INDEX 01 00:22:33
  TRACK 17 AUDIO
    TITLE "5:cjc173_3078"
    INDEX 01 00:22:53
  TRACK 18 AUDIO
    TITLE "0:"
    INDEX 01 00:26:29
  TRACK 19 AUDIO
    TITLE "3:cjc173_3079"
    INDEX 01 00:27:01
  TRACK 20 AUDIO
    TITLE "0:"
    INDEX 01 00:28:16
  TRACK 21 AUDIO
    TITLE "4:cjc173_3080"
    INDEX 01 00:28:38
  TRACK 22 AUDIO
    TITLE "0:"
    INDEX 01 00:31:13
  TRACK 23 AUDIO
    TITLE "5:cjc173_3081"
    INDEX 01 00:31:32
  TRACK 24 AUDIO
    TITLE "0:"
    INDEX 01 00:35:36
  TRACK 25 AUDIO
    TITLE "3:cjc173_3082"
    INDEX 01 00:36:18
  TRACK 26 AUDIO
    TITLE "0:"
    INDEX 01 00:37:39
  TRACK 27 AUDIO
    TITLE "4:cjc173_3083"
    INDEX 01 00:37:60
  TRACK 28 AUDIO
    TITLE "0:"
    INDEX 01 00:44:25
  TRACK 29 AUDIO
    TITLE "5:cjc173_3084"
    INDEX 01 00:44:45
  TRACK 30 AUDIO
    TITLE "0:"
    INDEX 01 00:48:31
  TRACK 31 AUDIO
    TITLE "3:cjc173_3085"
    INDEX 01 00:49:03
  TRACK 32 AUDIO
    TITLE "0:"
    INDEX 01 00:50:12
  TRACK 33 AUDIO
    TITLE "4:cjc173_3086"
    INDEX 01 00:50:34
  TRACK 34 AUDIO
    TITLE "0:"
    INDEX 01 00:53:36
  TRACK 35 AUDIO
    TITLE "5:cjc173_3087"
    INDEX 01 00:53:57
  TRACK 36 AUDIO
    TITLE "0:"
    INDEX 01 00:59:31
  TRACK 37 AUDIO
    TITLE "3:cjc173_3088"
    INDEX 01 01:00:03
  TRACK 38 AUDIO
    TITLE "0:"
    INDEX 01 01:01:20
  TRACK 39 AUDIO
    TITLE "4:cjc173_3089"
    INDEX 01 01:01:39
  TRACK 40 AUDIO
    TITLE "0:"
    INDEX 01 01:03:13
  TRACK 41 AUDIO
    TITLE "5:cjc173_3090"
    INDEX 01 01:03:32
  TRACK 42 AUDIO
    TITLE "0:"
    INDEX 01 01:07:64
  TRACK 43 AUDIO
    TITLE "3:cjc173_3091"
    INDEX 01 01:08:32
  TRACK 44 AUDIO
    TITLE "0:"
    INDEX 01 01:09:51
  TRACK 45 AUDIO
    TITLE "4:cjc173_3092"
    INDEX 01 01:09:72
  TRACK 46 AUDIO
    TITLE "0:"
    INDEX 01 01:13:19
  TRACK 47 AUDIO
    TITLE "5:cjc173_3093"
    INDEX 01 01:13:39
  TRACK 48 AUDIO
    TITLE "0:"
    INDEX 01 01:18:06
  TRACK 49 AUDIO
    TITLE "3:cjc173_3094"
    INDEX 01 01:18:52
  TRACK 50 AUDIO
    TITLE "0:"
    INDEX 01 01:19:67
  TRACK 51 AUDIO
    TITLE "4:cjc173_3095"
    INDEX 01 01:20:13
  TRACK 52 AUDIO
    TITLE "0:"
    INDEX 01 01:23:74
  TRACK 53 AUDIO
    TITLE "5:cjc173_3096"
    INDEX 01 01:24:19
  TRACK 54 AUDIO
    TITLE "0:"
    INDEX 01 01:29:36
  TRACK 55 AUDIO
    TITLE "3:cjc173_3097"
    INDEX 01 01:30:08
  TRACK 56 AUDIO
    TITLE "0:"
    INDEX 01 01:31:11
  TRACK 57 AUDIO
    TITLE "4:cjc173_3098"
    INDEX 01 01:31:35
  TRACK 58 AUDIO
    TITLE "0:"
    INDEX 01 01:33:37
  TRACK 59 AUDIO
    TITLE "5:cjc173_3099"
    INDEX 01 01:33:59
  TRACK 60 AUDIO
    TITLE "0:"
    INDEX 01 01:38:15
